<svg width="33" height="267" viewBox="0 0 33 267" fill="none" xmlns="http://www.w3.org/2000/svg">
<path d="M20.2208 0.0964661C22.2294 0.563995 23.8961 3.07166 25.285 7.74692C27.1013 13.7398 28.127 22.0277 28.9817 37.3286C29.4304 45.1066 29.6227 85.7176 29.3022 106.14C29.0458 123.587 28.9603 124.416 26.503 133.575C24.9217 139.483 24.7935 140.482 24.7935 146.39C24.7935 159.523 25.7978 177.098 27.3577 191.676C28.0201 197.733 28.6825 202.961 30.221 214.096C32.6997 232.096 32.9989 234.944 32.9989 242.148C33.0202 248.396 32.7425 250.967 31.6527 255.451C30.4988 260.084 29.4304 262.251 27.315 264.143C22.208 268.712 13.0625 267.649 9.32306 262.039C7.93413 259.978 6.8871 255.855 6.26742 250.223C5.69049 244.804 6.09648 237.303 7.59224 225.891C7.87003 223.659 8.44697 219.324 8.85296 216.221C10.7761 201.643 11.9941 188.552 12.7206 174.569C13.1479 165.941 13.5326 151.214 13.4257 146.092L13.3403 141.736L12.571 139.504C12.1436 138.272 10.4556 134.447 8.81022 131.004C4.70755 122.44 3.21179 118.593 1.84423 113.259C0.0279465 106.119 -0.292576 100.445 0.220257 84.7826C1.45961 46.6154 6.18195 16.8637 12.8488 5.28177C15.007 1.54153 17.8703 -0.477325 20.2208 0.0964661Z" fill="white"/>
</svg>
