<svg width="36" height="236" viewBox="0 0 36 236" fill="none" xmlns="http://www.w3.org/2000/svg">
<path d="M31.447 1.23378C32.7003 4.08211 34.208 17.5887 35.1707 34.5317C35.752 44.8775 35.8791 49.2511 35.8791 58.8803C35.8973 67.4437 35.8428 69.2262 35.5703 71.1373C35.1889 73.8386 34.5894 75.8784 33.5177 78.0468C32.4642 80.1601 31.7921 81.1524 28.7768 84.993C26.0521 88.4662 24.9622 90.0833 24.1812 91.8658C22.837 94.8795 22.5282 97.6727 22.8915 102.818C23.0186 104.472 23.727 112.282 24.4718 120.165C27.2146 149.255 27.8867 157.433 28.7041 171.251C29.4489 183.711 29.5397 186.504 29.5397 198.908C29.5397 212.341 29.3944 215.244 28.4498 221.989C27.5961 227.998 26.6515 230.589 24.5444 232.72C23.8905 233.382 22.946 234.154 22.4374 234.411C17.0788 237.296 10.5941 234.007 8.59598 227.391C8.16003 225.958 7.39712 221.437 6.9975 218.019C6.61604 214.638 6.47072 205.321 6.72503 200.304C7.03382 194.461 7.34262 190.749 8.74129 176.489C11.6113 147.326 12.4287 134.738 12.9373 112.723C13.1916 101.66 13.1008 96.0188 12.6648 94.4385C11.9746 91.9577 10.9755 90.2854 8.01471 86.7204C4.83591 82.8614 2.81965 79.4066 1.5118 75.5109C0.240284 71.7805 -0.068512 67.1496 0.0768051 54.1024C0.185791 44.8775 0.25845 42.5437 0.839714 33.0616C1.85693 16.5412 3.65522 0.370087 4.47262 0.590607C5.07205 0.755981 5.39902 5.27657 5.92579 21.2088C6.56155 40.4672 7.01566 47.5605 7.85123 51.787C8.28718 54.0106 8.61414 54.6905 9.15908 54.617C10.5396 54.4149 11.2117 47.5054 11.6476 29.1107C12.1926 5.71759 12.4105 1.41754 13.1734 0.664108C13.9727 -0.144455 14.336 4.44963 14.8264 21.3007C15.4077 41.0001 15.8436 47.8913 16.8245 52.1729C17.5511 55.4439 18.8226 55.4623 19.5492 52.2281C20.4029 48.4426 20.6936 42.2314 20.9115 23.3405C21.1295 5.35007 21.3293 0.95813 22.0014 0.535477C22.8007 0.0393066 23.2729 5.18468 23.9995 22.0358C24.6353 37.0125 24.9259 41.9373 25.38 46.5682C25.9068 52.0994 26.5244 54.6537 27.2873 54.6537C28.1955 54.6537 28.7768 52.1729 29.2672 46.2006C29.6124 41.9925 29.8122 34.8441 29.9938 20.3452C30.2118 4.28424 30.3934 0.443588 30.9384 0.443588C31.0292 0.443588 31.2653 0.79274 31.447 1.23378Z" fill="white"/>
</svg>
